<?xml version="1.0" encoding="utf-8"?>
<!-- Generator: Adobe Illustrator 24.1.0, SVG Export Plug-In . SVG Version: 6.00 Build 0)  -->
<svg version="1.1" id="Layer_1" xmlns="http://www.w3.org/2000/svg" xmlns:xlink="http://www.w3.org/1999/xlink" x="0px" y="0px"
	 viewBox="0 0 351 92.4" style="enable-background:new 0 0 351 92.4;" xml:space="preserve">
<style type="text/css">
	.st0{fill:none;}
	.st1{fill:#006BB6;}
	.st2{fill:#FFFFFF;}
	.st3{fill:#FFD200;}
	.st4{fill:#E32726;}
</style>
<rect x="-42.4" y="-37" class="st0" width="435.4" height="168.3"/>
<g>
	<g>
		<path class="st1" d="M40.1,56.1c0-1.1-0.7-1.6-2-1.6l-2.5,0.1l-2.4,0.1l-4.9-0.1c-0.8,0-2.5,0-2.5,1.7c0,1.4,1.2,1.5,1.9,1.5
			l0.6,0c1.2,0.2,2.1,0.5,2.6,1.7c0.4,0.9,0.4,2.7,0.4,3.8c0,0,0,10.3,0,12.5c-1.5-1.9-15-19.1-15-19.1L15.9,56
			c-1.1-1.4-1.3-1.6-3.4-1.6H2.7c-0.8,0-2.3,0-2.3,1.5c0,1.6,1.5,1.6,2.3,1.6l0.3,0c2,0.1,2.1,1.6,2.1,4l0,0.5v17.7l0,0.8
			c0,1.8,0,4.3-0.5,5.8c-0.4,1-0.8,1.3-1.9,1.4c0,0-0.3,0-0.3,0c-0.8,0-2.4,0.1-2.4,1.6c0,1,0.7,1.7,2,1.7l5.3-0.2l5.2,0.2
			c1.3,0,2.1-0.6,2.1-1.7c0-1.5-1.7-1.6-2.4-1.6l-0.3,0c-1.5-0.1-2.4-0.4-2.8-1.8c-0.4-1.1-0.4-4.1-0.4-5.4c0,0,0-15.1,0-17.4
			c1.5,1.9,21.1,27,21.1,27c0,0,0.2,0.3,0.2,0.3c0.7,1,1.5,2.1,3,2.1c0.8,0,1.3-0.2,1.6-0.5c0.4-0.4,0.4-0.9,0.4-1.6
			c0-0.1,0-0.3,0-0.5l0-0.5V62.4l0-0.7c0-0.2,0-0.4,0-0.6c0-2.1,0.2-3.3,1.9-3.5c0,0,0.7,0,0.7,0c0.8,0,1.6,0,2.2-0.5
			C40,56.8,40.1,56.5,40.1,56.1z"/>
		<path class="st1" d="M58.7,53.5c-5.5,0-10.3,1.9-14,5.7c-3.6,3.6-5.7,8.5-5.7,13.5c0,5.5,2.5,11,6.5,14.2
			c3.5,2.8,9.2,4.7,14.2,4.7c11.2,0,20-8.4,20-19.1C79.7,60.2,68.9,53.5,58.7,53.5z M60.4,88.6c-4.4,0-7.2-4.1-8.4-6.5
			c-1.6-3.2-2.4-7.1-2.4-11.1c0-5,1.8-14.6,8.8-14.6c8.2,0,10.8,11.8,10.8,17.5C69.2,79.1,67.4,88.6,60.4,88.6z"/>
		<path class="st1" d="M109.7,61c0.7-1.7,1.3-3.2,3.1-3.4c0,0,0.5,0,0.5,0c0.7,0,2.1-0.1,2.1-1.5c0-0.5-0.2-1.7-2-1.7l-4.7,0.1
			l-4.8-0.1c-0.6,0-2.2,0-2.2,1.6c0,1.5,1.4,1.6,2.2,1.6l0.6,0c0.6,0.1,1.6,0.4,1.6,1.5c0,0.8-0.5,2.3-1,3.4c0,0-5.4,13.4-6.1,15.3
			C98.3,76,92,60.5,92,60.5c-0.2-0.6-0.6-1.5-0.6-2c0-0.5,0.5-0.9,0.9-0.9c0,0,0.7,0,0.7,0c1,0,2.6,0,2.6-1.6c0-0.4-0.1-0.7-0.4-1
			c-0.5-0.5-1.4-0.5-2.1-0.5l-0.2,0l-6.4,0.2l-7.9-0.2l-0.3,0c-0.6,0-1.4,0-1.9,0.5c-0.2,0.2-0.4,0.6-0.4,1c0,1.6,1.3,1.7,1.8,1.7
			c0,0,0.1,0,0.1,0c0.8,0.1,1.4,0.2,1.9,0.7c0.6,0.8,1.4,2.7,1.6,3.3c0,0,11.6,27.6,11.6,27.6c0,0,0.2,0.5,0.2,0.5
			c0.4,1.1,0.7,1.9,2.4,1.9c1.4,0,1.8-0.8,2.2-1.8c0,0,11.5-27.8,11.5-27.8C109.3,62,109.7,61,109.7,61z"/>
		<path class="st1" d="M141.5,87.7l-0.4,0c-0.9,0-1.3-0.3-1.9-1.2c-0.5-0.8-1.1-2.2-1.3-2.8c0,0-11.4-27.6-11.4-27.6
			c0,0-0.2-0.6-0.2-0.6c-0.5-1.3-0.8-1.9-2.6-1.9c-2.2,0-2.6,1-3.2,2.5l-0.3,0.7l-6.4,15.6l-3,7.8l-0.6,1.5
			c-0.5,1.5-1.2,3.4-1.7,4.4c-0.7,1.3-1.1,1.4-2.7,1.7c-0.7,0.1-1.9,0.3-1.9,1.7c0,0.8,0.4,1.7,2.2,1.7l5.2-0.1l5.2,0.1
			c2,0,2.3-1,2.3-1.7c0-1.5-1.5-1.8-2.7-1.9c-1.7-0.2-3.1-0.4-3-2.1c0.1-0.8,0.4-1.8,0.6-2.3c0,0,0.2-0.5,0.2-0.5
			c0,0,0.1-0.3,0.1-0.3c0.4-1.1,0.6-1.9,2.2-1.8h7.9c2.1-0.1,2.2,1,2.6,2.2l0.1,0.3c0,0,0.8,2.1,0.8,2.1c0.2,0.5,0.5,1.3,0.5,2
			c0,0.5-0.4,0.6-1.6,0.8c-1,0.1-2.3,0.2-2.3,1.6c0,1.1,0.8,1.7,2.2,1.7l8.1-0.2l6.8,0.2c0.6,0,2.3,0,2.3-1.7
			C143.6,87.7,142.3,87.7,141.5,87.7z M124.5,76.8h-8.9l4.5-11.3L124.5,76.8z"/>
		<line class="st1" x1="323" y1="76.7" x2="323" y2="76.7"/>
		<path class="st1" d="M348.9,87.7l-0.4,0c-0.9,0-1.3-0.3-1.9-1.2c-0.5-0.8-1.1-2.2-1.3-2.8c0,0-11.4-27.6-11.4-27.6
			c0,0-0.3-0.6-0.3-0.6c-0.5-1.3-0.8-1.9-2.6-1.9c-2.2,0-2.6,1-3.2,2.5l-0.3,0.7l-6.4,15.6l-3,7.8l-0.6,1.5
			c-0.5,1.5-1.2,3.4-1.7,4.4c-0.7,1.3-1.2,1.6-2.5,1.7c-0.2,0-0.3,0-0.5,0c-0.3,0-0.4,0-0.5-0.1c-2.9-0.5-2.9-1.3-2.9-4.2l0-0.6
			V62.7l0-0.7c0-3.2,0-3.8,3.1-4.4c0.7-0.1,1.9-0.3,1.9-1.6c0-1-0.6-1.6-1.8-1.6l-3.9,0.1l-4,0.1l-8.5-0.2c-0.4,0-1.8,0-1.8,1.6
			c0,1.3,1.3,1.5,1.9,1.6l0.2,0c2.9,0.5,2.9,1.4,2.8,4.3l0,0.8l0,20.6c0,3.3,0,3.8-3.1,4.4c-1.6,0.3-1.9,1.1-1.9,1.8
			c0,0.7,0.3,1.6,1.8,1.6l8-0.2l8.5,0.2v0c0.2,0,0.5,0,0.8,0l5.2-0.1l5.2,0.1c2,0,2.3-1,2.3-1.7c0-1.5-1.5-1.8-2.7-1.9
			c-1.8-0.2-3.1-0.4-3-2.1c0.1-0.8,0.4-1.8,0.6-2.3c0,0,0.2-0.5,0.2-0.5c0,0,0.1-0.3,0.1-0.3c0.4-1.1,0.6-1.9,2.2-1.8h7.9
			c2.1-0.1,2.2,1,2.6,2.2l0.1,0.3c0,0,0.8,2.1,0.8,2.1c0.2,0.5,0.5,1.3,0.5,2c0,0.5-0.4,0.6-1.6,0.8c-1,0.1-2.3,0.2-2.3,1.6
			c0,1.1,0.7,1.7,2.2,1.7l8.1-0.2l6.8,0.2c0.6,0,2.3,0,2.3-1.7C351,87.7,349.7,87.7,348.9,87.7z M323,76.8l4.5-11.3l4.5,11.3H323z"
			/>
		<path class="st1" d="M169.3,66.9c0,0-2.8-1-2.8-1c-2.3-0.8-4.8-1.8-4.8-4.5c0-2.9,3-4.6,5.8-4.6c2.8,0,4.6,1.8,5.9,5.9
			c0.2,0.5,0.6,1.9,1.9,1.9c0.5,0,0.8-0.1,1.1-0.4c0.5-0.5,0.5-1.3,0.5-2V58l0-0.4c0-0.9,0-2-1.1-2.6c-1.9-1-5.6-1.5-7.4-1.5
			c-7.1,0-14.9,4.6-14.9,11.9c0,6.3,6.3,8.9,10,10.5c0,0,1.1,0.5,1.1,0.5c3.2,1.3,6.8,2.7,6.8,6.5c0,4.1-4.2,5.5-7.1,5.5
			c-1.6,0-3.8-0.3-5.4-1.9c-1.2-1.2-1.6-2.6-2-4.3l-0.1-0.5c-0.3-1-0.7-2.7-2.2-2.7c-0.4,0-0.7,0.1-1,0.4c-0.6,0.7-0.6,1.9-0.6,2.8
			l0,0.3v3.1l0,0.4c0,1.6,0,2.5,1.9,3.5c2.4,1.2,6.8,1.9,9.6,1.9c4.2,0,7.7-1.2,10.5-3.5c2.9-2.6,4.6-6,4.6-9.5
			C179.5,71.2,174.1,68.5,169.3,66.9z"/>
		<path class="st1" d="M215,79.9c-1,0-1.5,0.8-1.8,1.5c-0.9,1.7-1.9,3.7-3.5,5.1c-1.6,1.3-3.5,2-5.5,2c-3.6,0-6.9-2-9-5.5
			c-1.7-2.8-2.7-6.6-2.7-10.7c0-4.1,1.1-8,3-10.7c2.1-3.1,5.4-4.9,8.8-4.9c4.5,0,6.1,2.5,7.5,4.5c0.8,1.2,1.5,2.3,2.7,2.3
			c0.9,0,1.5-0.6,1.5-1.4l-0.2-1.6l0-0.1c0,0-0.4-2.9-0.4-2.9c0,0,0-0.1,0-0.1c-0.3-1.6-0.4-2-2.1-2.5c-2.6-0.7-5.8-1.2-8.4-1.2
			c-5.9,0-11.8,1.8-15.8,4.9c-4.7,3.6-7.3,8.8-7.3,14.5c0,5.5,2.8,11,7.2,14.5c3.5,2.7,9,4.3,14.8,4.3c3,0,7.3-0.5,10.9-2.7
			c1.8-1.1,1.9-2,2-3.7c0,0,0-0.3,0-0.3c0,0,0.2-2.4,0.2-2.4c0-0.2,0-0.4,0-0.6c0-0.5-0.1-1.2-0.5-1.6C215.8,80,215.4,79.9,215,79.9
			z"/>
		<path class="st1" d="M292,56l-0.6,6.1c-0.1,0.9-0.2,2.4-1.6,2.4c-0.7,0-1.6-0.3-2.1-2c-1.5-3.9-2.1-4.8-6.5-4.8c-1,0-1,0-1,1.2v24
			l0,0.6c0,2.9,0,3.8,2.9,4.2c0.7,0.1,2.2,0.3,2.2,1.8c0,0.5-0.2,1.6-1.8,1.6l-8.5-0.2l-8,0.2c-1.5,0-1.8-0.8-1.8-1.6
			c0-0.7,0.3-1.5,1.9-1.8c3-0.5,3.1-1,3.1-3.9c0-0.1,0-24.8,0-24.8l0-0.2c0-0.4,0-0.9-0.1-1c-0.1-0.1-0.7-0.1-1-0.1
			c-3.4,0-4.9,1.3-6.9,4.4c-0.9,1.5-1.8,2.2-2.7,2.2c-0.9,0-1.5-0.7-1.5-1.7l0.2-1.1c0,0,0.1-0.2,0.1-0.2l1.4-5.7
			c0,0,0.4-1.2,1.9-1.2c3.4-0.1,7.8,0.6,29,0.1C290.5,54.4,292.1,54.4,292,56z"/>
	</g>
	<g>
		<path class="st2" d="M237.7,53.2c0.1,0,0.3,0,0.4,0c-0.4-0.4-0.9-0.9-1.6-1.5c-2.9-3.2-10.8-13.7-11.4-35.5c0,0-0.1-8-0.8-10.5
			c0,0-15.2-2.6-26.1,1c-10.9,3.6-12.5,6.9-32.3-0.7c-19.8-7.7-49.4-5.8-52.5-5.7c2.5,5.1,2.5,5.1,6.2,11.7c0,0,13.7,23.4,16.1,39
			c0.6,3.9,0.8,7.1,0.8,7.1c0.7-0.4,13.3-3.8,13.3-3.8s16.7-5.3,24.8-6.2c9.5-1,9.7,2.2,21.1,2.3c6.5,0,9-2.3,17.2-1.4c0,0,0,0,0,0
			c0,0,9.6,1.2,19,4.7C232.8,53.5,234.5,53.2,237.7,53.2z"/>
		<g>
			<path class="st1" d="M164,28.5c0,0-2.4-6-3.7-13.4C133.2-1.3,113.5,0.3,113.5,0.3c2.5,5.1,2.5,5.1,6.2,11.7
				c30.3,5.6,41.5,17,41.5,17c-15.6,7.6-25.4,22-25.4,22c0.6,3.9,0.8,7.1,0.8,7.1c0.7-0.4,13.3-3.8,13.3-3.8
				c6.9-11.4,18.2-16.3,20.7-17.2C168.3,35.3,165.6,32.5,164,28.5z"/>
			<path class="st1" d="M238.1,53.2c-3.4-3.6-16.4-13.2-46.5-25.1c0,0,6.9-8.9,33.5-11.8c0,0-0.1-8-0.8-10.5c0,0-16.5-1.9-37.6,11.4
				c-0.2,1.9-0.1,5.6,1.6,10.2c0,0,2.8,5.8-0.7,10.7c1.5,0.4,11.2,2.6,25.3,10.9c0,0,9.6,1.2,19,4.7c-0.3,0.1-0.4,0.1-0.4,0.1
				c-3.4,0.8-6.5,2.5-9,5.1c-3.6,3.6-5.7,8.5-5.7,13.5c0,5.5,2.5,11,6.5,14.2c3.5,2.8,9.2,4.7,14.2,4.7c11.2,0,20-8.4,20-19.1
				C257.6,60.4,247.8,53.8,238.1,53.2z M238.3,88.2c-4.4,0-7.2-4.1-8.4-6.5c-1.6-3.2-2.4-7.1-2.4-11.1c0-5,1.8-14.6,8.8-14.6
				c8.2,0,10.8,11.8,10.8,17.5C247.1,78.7,245.3,88.2,238.3,88.2z"/>
		</g>
		<path class="st3" d="M188.4,27.3c-1.7-4.5-1.8-8.3-1.6-10.2c0,0,0,0,0,0c-1.1,0.3-2.8,0.2-2.9,0.2c-2.6-0.1-5.2-1-5.2-1
			c-5.4-1.6-8.7-2-8.7-2c-5.5-0.7-9.7,0.7-9.7,0.7c0,0,0,0,0,0c1.3,7.4,3.7,13.4,3.7,13.4c1.7,4,4.3,6.8,6.7,8.5
			c2.7,2,5.1,2.8,5.1,2.8c4.5,1.9,5.3,2.8,5.3,2.8c3.2-1.2,5.2-2.7,6.5-4.4c0.1-0.1,0.2-0.2,0.2-0.3
			C191.1,33.1,188.4,27.3,188.4,27.3z"/>
		<path class="st4" d="M176.5,35.3c0,0-1.9-2.2,1.1-1.5c0,0,0.3,0,0.3,0c0.3,0,0.5,0,0.5,0.3c0.3,0.6,0.5,1,1.1,1.2
			c0,0,0.5,0.3,1.8,0.2c0,0-0.2,0.8-0.9,1.3c0,0-0.6,0.2-0.5,1.3c0,0-0.5,0.2-1.2-0.3c0,0-0.9-0.3-0.9,0.5c0,0,0.7-0.2,1,0.1
			c0,0-1,0.3-0.5,1.2c0,0,0.7,0.3,1.6-0.9c0,0,0.2,0.1,0.2,0.2c0,0-1,0.2,0.7,1.5c0,0-0.3-1.3,0.2-1.3c0,0,0.7,0.2,0.9,0.9
			c0,0,0.2-0.9,0.5-1c0,0-1.2-1.1,0.2-0.9c0,0,0.2-0.1-0.3-0.5c0,0,0.5-0.3,0.9,0c0,0-0.2-0.2-0.1-0.4h0.8c0,0-1.2-0.5,0.5-1.2
			c0,0-0.7-0.4,0-0.5c0,0,0.3,0,0.2-0.9c0,0-2.4,1.4-2.8-1.4c0,0,1.5-0.5,2,0.9c0,0,0.3-0.2-0.1-1.1c0,0,1-0.5,0.4-3.2
			c0,0-0.1-0.2,0.6-0.6c0,0,1.2-0.7-0.9-1.4c0,0,0.8,1-0.1,1.3c0,0-2.5-3-1.2-5.7c0,0,0.6-1.5,0.2-2.9c-0.3-1.1-1.9-2.7-3.8-1.7
			c0,0,1.5,0.4,1.4,1.6c-0.1,0.8-1,1.7-0.3,4c0.4,1.2,1.1,2.4,2,3.5c0,0,0.6,0.7,0.9,1.4c0,0-0.5-0.3-1-0.3c0,0-1.4-0.2,0.1,1.4
			c-0.2-0.2-0.8-1,1.2-0.5c0,0,1.3,2.4-0.2,2.7c0,0-0.9,0.1-1.6-0.8c0,0-1.3-1.6-1.8-2.2c0,0-1.8-1.6-1.9-3.9c0,0-0.1-0.9,0.6-1.1
			c0,0,0,0,0,0c0,0,0-0.1,0-0.1c-1.6-1.6-0.6-2.6-0.6-2.6c0.3,0,0.4-0.2,0.4-0.2s-0.9-1-0.9-1.2c0-0.2,0.4-0.4,0.4-0.4l-0.5-0.6
			c-0.4-0.2-0.6-1.5-0.6-1.5l-0.4,0.1c-0.3-0.6-1.1-1.2-1.1-1.2c0,0.7-1.3,0.8-1.3,0.8c-0.7-0.3-1.5,0-1.5,0c-0.8-0.1,0,0.8,0,0.8
			c0.2,0.5,1.2,0.9,1.2,0.9l0.9,0.5c-0.1,0.2-0.6,0.1-0.6,0.1c-0.7-0.5-1.5-0.3-1.5-0.3c-0.7,0.3-0.8-0.4-0.8-0.4
			c-0.5,0.9,1.2,0.9,1.2,0.9c1.2,0,1.5,0.5,1.5,0.5c-1-0.1-1,0.4-1,0.4c-0.8-0.1-1,0.6-1,0.6c-0.5,0.2-0.2,0.9-0.2,0.9
			c1,1.2,0.1,0.9-0.8,0.7l-0.6-0.2c0.2-0.9-0.8-2.6-0.8-2.6c-1.3-2-0.8-2.4-0.8-2.4c0.8-1-0.2-1.3-0.2-1.3c0.3,0.5-0.1,0.7-0.1,0.7
			c-0.8-1.1-1.4-1-1.4-1c0.9,0.9,0.5,1.2,0.5,1.2c-1.2-1.2-1.9-0.6-1.9-0.6c0.6,0.1,0.6,0.7,0.6,0.7c0.2,0.5,0.6,0.3,0.6,0.3
			c0.7,0.5,0,0.6,0,0.6c-0.1-0.3-0.4-0.1-0.4-0.1c-0.3,0-0.6,0-0.6,0c0.2,0.9,1.5,0.8,1.6,0.8c1.1,1.7,0.3,2.3,0.3,2.3
			c0.9,1.7,0,1.6,0,1.6c0.5,0,0.8,0.5,0.8,0.5c0.2,0.6-0.6,0.5-0.6,0.5c0.5,0.5,1.5,0.5,1.5,0.5c0.6,0.4,0.8,0.6,0.9,0.7
			c0.4,0.2,0.9,0.4,1.6,0.3c0,0.1,0,0.1,0.1,0.2c0,0-1.7,1.2-3.5,1.2c0,0-0.2-0.2-0.6-0.6c0,0-0.6-0.5-0.8,0c0,0,0.8,0.3,0.7,0.7
			l-1.1-0.2c0,0,0.2,0.2,0.3,0.4c0,0,0.1,0.5,1.2,0.3c0,0,0.2,0.2,0.1,0.3c0,0-0.5,0.2-0.3,0.7c0,0,0.5,0,0.7-0.1
			c0,0,0.2-0.1,0.2-0.4h0.5c0,0,0.7-0.1,0.4,0.6c0,0,0.3,0.2,0.6-0.6c0,0,0.5-0.3,0.7,0.4c0,0,0.2-0.7,0.9-0.5c0,0,0,0.2-0.2,0.3
			c0,0,0.4,0.2,0.6-0.2c0,0,0.6-0.3,0.7,0.2c0,0,0.3-0.7,0.3-0.9c0,0,1,0.4,0.8,0.7c0,0,0.2,0.2,0.5,0.1c0,0,1.1,1.2,2.6,2.2
			c-0.7,0-1.2,0-1.4,0.1c0,0-0.4-0.1-0.4-0.1c0,0-0.9-0.2-1.1,0.2c0,0-0.8,0.4-0.3,1.7c0,0-0.3,0.8-0.7,0.4c0,0-0.7-0.5-1.5-0.6
			c0,0-1.1-0.4-1.4-1.1c0,0-0.5-0.8-1.3,0c0,0,0.6,0.1,0.7,0.5c0,0,0.3,0.3,0.7,0.3c0,0,0.2,0.2,0.1,0.3c0,0-1.6-0.2-1.1,0.8
			c0,0,0.2-0.4,0.8,0.1c0,0,0.5,0.1,0.6-0.3c0,0,0.7,0.4-0.1,1c0,0,0.6,0.4,1.1-0.5c0,0,0.7,0.1,1,1.2c0,0,0.7-1,1.1,0.1
			c0,0,0.3-0.6,0.6,0.4c0,0,0.5,0.3,0.9,0C175.5,35.2,175.7,35.5,176.5,35.3z"/>
	</g>
</g>
</svg>
