<?xml version="1.0" encoding="utf-8"?>
<!-- Generator: Adobe Illustrator 24.1.0, SVG Export Plug-In . SVG Version: 6.00 Build 0)  -->
<svg version="1.1" id="Layer_1" xmlns="http://www.w3.org/2000/svg" xmlns:xlink="http://www.w3.org/1999/xlink" x="0px" y="0px"
	 viewBox="0 0 500 500" style="enable-background:new 0 0 500 500;" xml:space="preserve">
<style type="text/css">
	.st0{opacity:5.000000e-02;fill:#00AEEF;}
	.st1{opacity:0.15;fill:#00AEEF;}
	.st2{display:none;fill:url(#SVGID_1_);}
</style>
<polygon class="st0" points="598.1,918.1 695.3,918.1 406.4,417.7 309.2,417.7 "/>
<polygon class="st0" points="857.5,18.2 760.3,18.2 1049.2,-482.2 1146.4,-482.2 "/>
<polygon class="st0" points="644.9,918.1 742.1,918.1 453.2,417.7 356,417.7 "/>
<polygon class="st0" points="904.7,18.2 807.5,18.2 1096.4,-482.2 1193.6,-482.2 "/>
<polygon class="st0" points="1717.6,458.4 331.6,458.4 620.3,-41.6 2006.2,-41.6 "/>
<polygon class="st0" points="428.8,542.2 331.6,542.2 620.6,41.7 717.8,41.7 "/>
<polygon class="st1" points="476.1,542.2 378.8,542.2 667.8,41.7 765,41.7 "/>
<linearGradient id="SVGID_1_" gradientUnits="userSpaceOnUse" x1="0" y1="250" x2="500" y2="250">
	<stop  offset="0" style="stop-color:#FFFFFF;stop-opacity:0"/>
	<stop  offset="0.1304" style="stop-color:#F7FCFC;stop-opacity:0.1312"/>
	<stop  offset="0.3381" style="stop-color:#DFF2F5;stop-opacity:0.3402"/>
	<stop  offset="0.5969" style="stop-color:#BAE3E8;stop-opacity:0.6006"/>
	<stop  offset="0.8941" style="stop-color:#86CED7;stop-opacity:0.8998"/>
	<stop  offset="0.9938" style="stop-color:#73C6D1"/>
</linearGradient>
<rect class="st2" width="500" height="500"/>
</svg>
