<?xml version="1.0" encoding="utf-8"?>
<!-- Generator: Adobe Illustrator 24.1.0, SVG Export Plug-In . SVG Version: 6.00 Build 0)  -->
<svg version="1.1" id="Layer_1" xmlns="http://www.w3.org/2000/svg" xmlns:xlink="http://www.w3.org/1999/xlink" x="0px" y="0px"
	 viewBox="0 0 30 30" style="enable-background:new 0 0 30 30;" xml:space="preserve">
<style type="text/css">
	.st0{fill:#FFFFFF;}
	.st1{display:none;fill:#147BC0;}
</style>
<circle class="st0" cx="15" cy="15" r="14.9"/>
<path class="st1" d="M14,7.8L14.8,7c0.4-0.4,0.9-0.4,1.3,0l7.3,7.5c0.4,0.4,0.4,0.9,0,1.3l-7.3,7.5c-0.4,0.4-0.9,0.4-1.3,0L14,22.4
	c-0.4-0.4-0.3-1,0-1.3l4.5-4.4H7.8c-0.5,0-0.9-0.4-0.9-0.9v-1.2c0-0.5,0.4-0.9,0.9-0.9h10.8L14,9.1C13.7,8.8,13.7,8.2,14,7.8z"/>
<path class="st1" d="M16.5,22.4l-0.8,0.9c-0.4,0.4-0.9,0.4-1.3,0l-7.3-7.5c-0.4-0.4-0.4-0.9,0-1.3L14.4,7c0.4-0.4,0.9-0.4,1.3,0
	l0.8,0.9c0.4,0.4,0.3,1,0,1.3L12,13.6h10.8c0.5,0,0.9,0.4,0.9,0.9v1.2c0,0.5-0.4,0.9-0.9,0.9H12l4.5,4.4
	C16.9,21.5,16.9,22,16.5,22.4L16.5,22.4z"/>
</svg>
