<?xml version="1.0" encoding="utf-8"?>
<!-- Generator: Adobe Illustrator 16.0.4, SVG Export Plug-In . SVG Version: 6.00 Build 0)  -->
<!DOCTYPE svg PUBLIC "-//W3C//DTD SVG 1.1//EN" "http://www.w3.org/Graphics/SVG/1.1/DTD/svg11.dtd">
<svg version="1.1" id="Layer_1" xmlns="http://www.w3.org/2000/svg" xmlns:xlink="http://www.w3.org/1999/xlink" x="0px" y="0px"
	 width="279.167px" height="74.537px" viewBox="0 0 279.167 74.537" enable-background="new 0 0 279.167 74.537"
	 xml:space="preserve">
<g>
	<path fill="#FFFFFF" d="M128.844,23.426c-12.1,6-20.5,18.5-20.5,18.5c0.9,2.4,1.4,4.4,1.4,4.4c0.6-0.301,10.4-3,10.4-3
		c6.1-10.2,16.4-13.601,16.4-13.601c-5.3-3.6-6-15.5-8.3-16.5c-21.3-13-36.3-11.6-36.3-11.6c1.8,3.8,3.6,8.4,3.6,8.4
		C119.145,14.326,128.844,23.426,128.844,23.426 M34.544,44.726c0-0.8-0.5-1.3-1.6-1.3h-3.8l-3.8-0.1c-0.6,0-2,0-2,1.3
		c0,1.1,0.9,1.1,1.5,1.2h0.5c0.9,0.1,1.6,0.399,2,1.3c0.3,0.7,0.3,2.2,0.3,3v9.8c-1.2-1.5-11.7-15-11.7-15l-0.3-0.4
		c-0.8-1.1-1-1.199-2.7-1.199h-7.6c-0.6,0-1.8,0-1.8,1.199c0,1.2,1.2,1.301,1.8,1.301h0.2c1.6,0.1,1.7,1.3,1.6,3.1v15
		c0,1.4,0,3.4-0.4,4.5c-0.3,0.8-0.6,1.1-1.5,1.1h-0.3c-0.7,0-1.9,0.101-1.9,1.301c0,0.8,0.6,1.3,1.5,1.3l4.1-0.2l4.1,0.2
		c1,0,1.7-0.5,1.7-1.3c0-1.2-1.3-1.301-1.9-1.301h-0.2c-1.1-0.1-1.8-0.3-2.2-1.399c-0.3-0.9-0.3-3.2-0.3-4.2v-13.7
		c1.3,1.601,16.6,21.2,16.6,21.2l0.2,0.3c0.6,0.8,1.2,1.601,2.3,1.601c0.6,0,1-0.101,1.3-0.4c0.3-0.3,0.3-0.8,0.3-1.2v-22.5v-0.5
		c0-1.6,0.2-2.6,1.5-2.8h0.5c0.6,0,1.3,0,1.7-0.4C34.444,45.326,34.544,45.025,34.544,44.726 M50.344,70.326
		c-3.4,0-5.6-3.2-6.5-5.101c-1.2-2.5-1.9-5.5-1.9-8.7c0-4,1.4-11.399,6.9-11.399c6.4,0,8.4,9.3,8.4,13.8
		C57.244,62.826,55.744,70.326,50.344,70.326 M49.044,42.726c-4.3,0-8,1.5-10.9,4.5c-2.8,2.8-4.5,6.7-4.5,10.601
		c0,4.399,1.9,8.6,5.1,11.1c2.7,2.2,7.2,3.7,11.1,3.7c8.7,0,15.5-6.601,15.5-15C65.344,48.025,56.944,42.726,49.044,42.726
		 M88.744,48.626c0.5-1.3,1-2.5,2.4-2.7h0.4c0.6,0,1.7-0.1,1.7-1.1c0-0.4-0.2-1.301-1.6-1.301l-3.7,0.101l-3.7-0.101
		c-0.5,0-1.7,0-1.7,1.2s1.1,1.2,1.7,1.2h0.5c0.5,0.1,1.3,0.3,1.3,1.2c0,0.6-0.4,1.8-0.8,2.7l-4.8,12c-0.6-1.5-5.5-13.601-5.5-13.601
		c-0.2-0.5-0.5-1.2-0.5-1.6c0-0.4,0.4-0.7,0.7-0.7h0.5c0.8,0,2,0,2-1.3c0-0.3-0.1-0.601-0.3-0.8c-0.4-0.4-1.1-0.4-1.6-0.4h-0.1
		l-5,0.2l-6.1-0.2h-0.2c-0.5,0-1.1,0-1.5,0.4c-0.2,0.199-0.3,0.5-0.3,0.8c0,1.3,1,1.3,1.4,1.399h0.1c0.7,0.101,1.1,0.101,1.4,0.601
		c0.5,0.6,1.1,2.1,1.3,2.6l9.1,21.601l0.1,0.399c0.3,0.9,0.6,1.5,1.9,1.5c1.1,0,1.4-0.6,1.7-1.5l8.9-21.8
		C88.344,49.426,88.744,48.626,88.744,48.626z M93.344,60.926l0.5-1.2c0.1-0.2,0.2-0.5,0.3-0.8l0.2-0.5c0,0,1.8-4.5,2.5-6.5
		c0.5,1.4,2.5,6.5,2.5,6.5l0.2,0.5c0,0,0.7,1.8,0.7,1.9h0.1L93.344,60.926z M113.444,69.626h-0.3c-0.7,0-1-0.2-1.5-0.9
		c-0.4-0.6-0.9-1.7-1-2.2l-8.9-21.699l-0.2-0.5c-0.4-1-0.6-1.5-2-1.5c-1.7,0-2.1,0.8-2.5,2l-0.2,0.5l-5,12.199l-2.4,6.2l-0.4,1.2
		c-0.4,1.2-1,2.6-1.4,3.4c-0.6,1.1-0.9,1.1-2.1,1.3c-0.6,0.1-1.5,0.2-1.5,1.3c0,0.6,0.3,1.3,1.7,1.3l4.1-0.1l4.1,0.1
		c1.6,0,1.8-0.8,1.8-1.3c0-1.2-1.2-1.4-2.1-1.5c-1.4-0.2-2.4-0.3-2.3-1.7c0.1-0.6,0.3-1.399,0.5-1.8l0.1-0.4l0.1-0.199
		c0.3-0.9,0.5-1.5,1.7-1.5h6.1c1.7-0.101,1.7,0.8,2.1,1.699l0.1,0.301l0.7,1.699c0.2,0.4,0.4,1.101,0.4,1.601
		c0,0.399-0.3,0.5-1.2,0.6c-0.8,0.101-1.8,0.2-1.8,1.3c0,0.9,0.6,1.301,1.7,1.301l6.3-0.2l5.3,0.2c0.5,0,1.8,0,1.8-1.301
		C115.145,69.626,114.044,69.626,113.444,69.626 M254.845,60.926L254.845,60.926l0.5-1.2c0.1-0.2,0.199-0.5,0.3-0.8l0.2-0.5
		c0,0,1.8-4.5,2.5-6.5c0.5,1.4,2.5,6.5,2.5,6.5l0.199,0.5c0,0,0.7,1.8,0.7,1.9h0.101L254.845,60.926L254.845,60.926z
		 M274.944,69.626h-0.3c-0.7,0-1-0.2-1.5-0.9c-0.4-0.6-0.9-1.7-1-2.2l-8.9-21.699l-0.2-0.5c-0.399-1-0.6-1.5-2-1.5
		c-1.699,0-2.1,0.8-2.5,2l-0.199,0.5l-5,12.199l-2.4,6.2l-0.4,1.2c-0.399,1.2-1,2.6-1.399,3.4c-0.601,1.1-0.8,1.199-2,1.399h-0.4
		c-0.1,0-0.2,0-0.399-0.1c-2.2-0.4-2.2-1.101-2.2-3.3v-16.9c0-2.5,0-3,2.399-3.4c0.601-0.1,1.5-0.3,1.5-1.3c0-0.8-0.5-1.2-1.399-1.2
		l-3.101,0.101l-3.1,0.1l-6.6-0.2c-0.301,0-1.4,0-1.4,1.2c0,1,1,1.2,1.5,1.2h0.2c2.2,0.4,2.2,1.1,2.2,3.4v16.8c0,2.6,0,3-2.4,3.399
		c-1.2,0.2-1.5,0.9-1.5,1.4c0,0.6,0.2,1.2,1.4,1.2l6.199-0.2l6.601,0.2h0.6l4.101-0.101l4.1,0.101c1.6,0,1.8-0.8,1.8-1.3
		c0-1.2-1.2-1.4-2.1-1.5c-1.4-0.2-2.4-0.301-2.3-1.7c0.1-0.601,0.3-1.4,0.5-1.8l0.1-0.4l0.1-0.2c0.301-0.899,0.5-1.5,1.7-1.5h6.101
		c1.699-0.1,1.699,0.8,2,1.7l0.1,0.3l0.6,1.7c0.2,0.4,0.4,1.1,0.4,1.6c0,0.4-0.3,0.5-1.2,0.601c-0.8,0.1-1.8,0.2-1.8,1.3
		c0,0.9,0.6,1.3,1.7,1.3l6.3-0.2l5.3,0.2c0.5,0,1.8,0,1.8-1.3C276.645,69.626,275.544,69.626,274.944,69.626 M135.145,53.226
		l-2.2-0.8c-1.8-0.6-3.7-1.4-3.7-3.5c0-2.2,2.3-3.6,4.5-3.6c2.1,0,3.6,1.399,4.6,4.6c0.1,0.4,0.4,1.5,1.5,1.5c0.4,0,0.6-0.1,0.8-0.3
		c0.399-0.4,0.399-1.101,0.399-1.601v-3.5c0-0.699,0-1.5-0.899-2c-1.4-0.8-4.3-1.199-5.8-1.199c-5.6,0-11.6,3.6-11.6,9.399
		c0,4.9,4.9,7,7.8,8.3l0.9,0.4c2.5,1,5.3,2.1,5.3,5.1c0,3.2-3.3,4.4-5.5,4.4c-1.2,0-3-0.3-4.2-1.5c-0.9-1-1.2-2-1.6-3.4l-0.1-0.399
		c-0.2-0.8-0.5-2.101-1.7-2.101c-0.3,0-0.6,0.101-0.8,0.301c-0.5,0.5-0.5,1.5-0.5,2.199v3.101c0,1.2,0,2,1.4,2.8
		c1.9,0.9,5.3,1.5,7.4,1.5c3.3,0,6-0.9,8.2-2.8c2.3-2,3.6-4.7,3.6-7.4C143.044,56.626,138.844,54.525,135.145,53.226
		 M170.645,63.426c-0.8,0-1.2,0.7-1.4,1.2c-0.7,1.3-1.5,2.899-2.7,4c-1.3,1.1-2.8,1.6-4.3,1.6c-2.8,0-5.3-1.6-7-4.3
		c-1.3-2.2-2.1-5.2-2.1-8.4c0-3.199,0.8-6.3,2.3-8.399c1.7-2.4,4.2-3.9,6.8-3.9c3.5,0,4.8,1.9,5.8,3.5c0.601,1,1.2,1.8,2.101,1.8
		c0.7,0,1.2-0.5,1.2-1.1l-0.2-1.3v-0.101l-0.3-2.3v-0.1c-0.2-1.3-0.301-1.601-1.601-2c-2-0.601-4.5-1-6.6-1
		c-4.601,0-9.2,1.399-12.3,3.8c-3.601,2.8-5.7,6.9-5.7,11.4c0,4.3,2.2,8.699,5.6,11.399c2.8,2.101,7,3.4,11.601,3.4
		c2.3,0,5.699-0.4,8.5-2.101c1.399-0.899,1.5-1.6,1.5-2.899v-0.2l0.1-1.9v-0.5c0-0.399-0.1-0.899-0.4-1.3
		C171.345,63.626,171.044,63.426,170.645,63.426 M230.645,44.726l-0.5,4.8c-0.101,0.7-0.2,1.9-1.3,1.9c-0.5,0-1.2-0.3-1.7-1.6
		c-1.2-3.101-1.601-3.801-5.101-3.801c-0.8,0-0.8,0-0.8,0.9v19.3c0,2.3,0,3,2.2,3.3c0.5,0.101,1.7,0.301,1.7,1.4
		c0,0.4-0.101,1.2-1.4,1.2l-6.6-0.2l-6.2,0.2c-1.2,0-1.4-0.7-1.4-1.2s0.301-1.2,1.5-1.4c2.301-0.399,2.4-0.8,2.4-3.1v-19.5
		c0-0.3,0-0.7-0.1-0.7c-0.101-0.1-0.5-0.1-0.801-0.1c-2.699,0-3.8,1-5.399,3.399c-0.7,1.2-1.4,1.7-2.101,1.7
		c-0.699,0-1.1-0.5-1.1-1.399l0.2-0.9l0.1-0.2l1.101-4.5c0,0,0.3-1,1.5-1c2.699-0.1,6.1,0.5,22.6,0.101
		C229.444,43.426,230.744,43.426,230.645,44.726 M188.744,42.525c-1.6-1.6-5.7-5.2-15.399-10.3c-5.301-2.8-12.101-6-20.801-9.4
		c0,0,5.301-7,26.101-9.3c0,0,0-6-0.5-7.9c0,0-13.101-1.5-29.5,9.4c0,0-0.5,4.7,0.8,7.9c0,0,1.7,4.2-0.3,8c0,0,11.899,3,23,10.5
		c0,0,7.2,0.8,12.399,1.5c-0.6,0.1-0.899,0.2-0.899,0.2c-2.7,0.6-5,2-7,4c-2.8,2.8-4.5,6.7-4.5,10.6c0,4.4,1.899,8.601,5.1,11.101
		c2.7,2.199,7.2,3.699,11.101,3.699c8.699,0,15.5-6.6,15.5-15C203.845,48.126,196.244,43.025,188.744,42.525L188.744,42.525z
		 M188.845,70.025c-3.4,0-5.601-3.199-6.5-5.1c-1.2-2.5-1.9-5.5-1.9-8.7c0-4,1.4-11.5,6.9-11.5c6.399,0,8.399,9.3,8.399,13.8
		C195.744,62.525,194.244,70.025,188.845,70.025z"/>
</g>
<path fill="#FFFFFF" d="M140.744,28.426c0,0-1.5-1.7,0.8-1.2h0.2c0.2,0,0.4,0,0.4,0.2c0.2,0.5,0.399,0.8,0.8,1c0,0,0.4,0.2,1.4,0.2
	c0,0-0.101,0.6-0.7,1c0,0-0.5,0.2-0.4,1c0,0-0.399,0.1-0.899-0.2c0,0-0.7-0.2-0.7,0.4c0,0,0.6-0.2,0.8,0.1c0,0-0.8,0.2-0.4,0.9
	c0,0,0.601,0.2,1.2-0.7c0,0,0.101,0.1,0.101,0.2c0,0-0.801,0.2,0.5,1.2c0,0-0.301-1,0.199-1c0,0,0.5,0.1,0.7,0.7
	c0,0,0.101-0.7,0.4-0.8c0,0-0.9-0.9,0.1-0.7c0,0,0.2-0.1-0.2-0.4c0,0,0.4-0.2,0.7,0c0,0-0.1-0.2-0.1-0.3h0.6c0,0-0.899-0.4,0.3-0.9
	c0,0-0.6-0.3,0-0.4c0,0,0.301,0,0.2-0.7c0,0-1.8,1.1-2.2-1.1c0,0,1.101-0.4,1.5,0.7c0,0,0.2-0.2-0.1-0.8c0,0,0.8-0.4,0.3-2.5
	c0,0-0.1-0.2,0.5-0.4c0,0,0.9-0.6-0.7-1.1c0,0,0.7,0.8-0.1,1c0,0-1.9-2.3-1-4.5c0,0,0.4-1.2,0.2-2.3c-0.2-0.9-1.5-2.1-2.9-1.3
	c0,0,1.2,0.3,1.101,1.3c-0.101,0.6-0.801,1.4-0.2,3.1c0.3,0.9,0.8,1.9,1.6,2.7c0,0,0.5,0.6,0.7,1.1c0,0-0.4-0.2-0.8-0.3
	c0,0-1.101-0.1,0.1,1.1c-0.1-0.1-0.7-0.8,0.9-0.4c0,0,1,1.9-0.101,2.1c0,0-0.699,0.1-1.3-0.6c0,0-1-1.3-1.399-1.7
	c0,0-1.4-1.2-1.5-3.1c0,0-0.101-0.7,0.5-0.8v-0.1c-1.2-1.3-0.4-2-0.4-2c0.2,0,0.3-0.1,0.3-0.1s-0.7-0.8-0.7-0.9
	c0-0.1,0.301-0.3,0.301-0.3l-0.4-0.4c-0.3-0.1-0.4-1.2-0.4-1.2l-0.3,0.1c-0.3-0.5-0.8-0.9-0.8-0.9c0,0.5-1,0.6-1,0.6
	c-0.5-0.3-1.1,0-1.1,0c-0.6-0.1,0,0.6,0,0.6c0.1,0.4,0.9,0.7,0.9,0.7l0.7,0.4c-0.1,0.1-0.4,0.1-0.4,0.1c-0.6-0.4-1.2-0.3-1.2-0.3
	c-0.5,0.3-0.6-0.3-0.6-0.3c-0.4,0.7,0.9,0.7,0.9,0.7c0.9,0,1.2,0.4,1.2,0.4c-0.8-0.1-0.8,0.3-0.8,0.3c-0.6-0.1-0.7,0.4-0.7,0.4
	c-0.4,0.1-0.2,0.7-0.2,0.7c0.8,0.9,0.1,0.7-0.6,0.5l-0.4-0.1c0.1-0.7-0.6-2-0.6-2c-1-1.6-0.6-1.9-0.6-1.9c0.7-0.8-0.2-1-0.2-1
	c0.2,0.4-0.1,0.5-0.1,0.5c-0.6-0.9-1.1-0.8-1.1-0.8c0.7,0.7,0.4,0.9,0.4,0.9c-1-0.9-1.4-0.5-1.4-0.5c0.5,0.1,0.5,0.6,0.5,0.6
	c0.2,0.4,0.5,0.3,0.5,0.3c0.5,0.4,0,0.4,0,0.4c-0.1-0.2-0.3,0-0.3,0h-0.5c0.1,0.7,1.2,0.7,1.2,0.6c0.9,1.3,0.2,1.8,0.2,1.8
	c0.7,1.3,0,1.3,0,1.3c0.4,0,0.6,0.4,0.6,0.4c0.1,0.4-0.5,0.4-0.5,0.4c0.4,0.4,1.2,0.4,1.2,0.4c0.4,0.4,0.7,0.5,0.7,0.5
	c0.3,0.2,0.7,0.3,1.2,0.3c0,0.1,0,0.1,0.1,0.2c0,0-1.3,1-2.7,0.9c0,0-0.2-0.2-0.4-0.5c0,0-0.5-0.4-0.6,0c0,0,0.6,0.2,0.5,0.6
	l-0.8-0.2c0,0,0.1,0.2,0.2,0.3c0,0,0.1,0.4,0.9,0.2c0,0,0.1,0.2,0,0.2c0,0-0.4,0.1-0.3,0.6c0,0,0.4,0,0.5-0.1c0,0,0.2-0.1,0.1-0.3
	h0.4c0,0,0.6-0.1,0.3,0.5c0,0,0.2,0.1,0.5-0.5c0,0,0.4-0.2,0.5,0.3c0,0,0.2-0.5,0.7-0.4c0,0,0,0.1-0.1,0.3c0,0,0.3,0.2,0.4-0.2
	c0,0,0.5-0.2,0.5,0.2c0,0,0.2-0.6,0.2-0.7c0,0,0.8,0.3,0.7,0.6c0,0,0.1,0.1,0.4,0c0,0,0.9,0.9,2,1.8c-0.601,0-0.9,0-1.101,0.1
	l-0.3-0.1c0,0-0.7-0.2-0.9,0.1c0,0-0.6,0.3-0.3,1.3c0,0-0.2,0.7-0.6,0.3c0,0-0.6-0.4-1.2-0.5c0,0-0.8-0.3-1.1-0.8c0,0-0.4-0.6-1,0
	c0,0,0.4,0.1,0.6,0.4c0,0,0.3,0.2,0.5,0.3c0,0,0.1,0.1,0.1,0.2c0,0-1.3-0.2-0.9,0.7c0,0,0.2-0.3,0.6,0.1c0,0,0.4,0.1,0.5-0.2
	c0,0,0.5,0.3-0.1,0.8c0,0,0.4,0.3,0.8-0.4c0,0,0.5,0.1,0.8,0.9c0,0,0.6-0.8,0.9,0.1c0,0,0.2-0.5,0.4,0.3c0,0,0.4,0.3,0.7,0
	C139.944,28.326,140.044,28.626,140.744,28.426"/>
</svg>
